# xmcd
#
# Track frame offsets: 
#        150
#        17425
#        35511
#        55791
#        71915
#        93166
#        112846
#        124221
#        144063
#        160829
#        178313
#        198447
#        213569
#        231875
#        251833
#        263919
#        283628
#        301172
#        322378
#        336486
#
# Disc length: 4788 seconds
#
# Revision: 0
# Processed by: cddbd v1.5.2PL0 Copyright (c) Steve Scherf et al.
# Submitted via: ExactAudioCopy v1.0b1
#
DISCID=2b12b214
DTITLE=Various Artist - Золотые песни 80х. Выпуск 2
DYEAR=1900
DGENRE=Pop
TTITLE0=Алла Пугачева - Надо же
TTITLE1=Мираж - Больше не прошу
TTITLE2=Комбинация - Бухгалтер
TTITLE3=Владимир Маркин - Сиреневый туман
TTITLE4=Светлана Разина - Мой ветер поет
TTITLE5=Фристайл - Желтые розы
TTITLE6=Круиз - Как скучно жить без светлой сказки
TTITLE7=Форум - Белая ночь
TTITLE8=Ион Суручану - Незабудка
TTITLE9=Самоцветы - Али-баба
TTITLE10=Лариса Долина - Льдинка
TTITLE11=Николай Караченцов - Кленовый лист
TTITLE12=Веселые ребята - Чашка чаю
TTITLE13=Валерий Леонтьев - Ярмарки краски
TTITLE14=Юрий Антонов - Море
TTITLE15=Маленький принц - Мы встретимся снова
TTITLE16=Игорь Саруханов - Дорогие мои старики
TTITLE17=Сергей Минаев — Вояж, вояж
TTITLE18=Павел Смеян - Непогода
TTITLE19=Комиссар - Ты уйдешь
EXTD=
EXTT0=
EXTT1=
EXTT2=
EXTT3=
EXTT4=
EXTT5=
EXTT6=
EXTT7=
EXTT8=
EXTT9=
EXTT10=
EXTT11=
EXTT12=
EXTT13=
EXTT14=
EXTT15=
EXTT16=
EXTT17=
EXTT18=
EXTT19=
PLAYORDER=
